<svg id="Capa_1" enable-background="new 0 0 497 497" height="512" viewBox="0 0 497 497" width="512" xmlns="http://www.w3.org/2000/svg"><g><g><path d="m365.562 446.164c-13.805-31.66-40.392-57.291-74.165-69.382h-55.298l-51.253 30.706v78.614l-10.899 10.898h74.55 74.534 53.11c.001-18.061-3.783-35.25-10.579-50.836z" fill="#efedff"/><path d="m216.87 376.782h-11.289c-32.505 11.641-59.806 36.489-74.148 69.383-6.796 15.585-10.579 32.774-10.579 50.834h96.016v-43.511c0-7.533 4.019-14.494 10.543-18.26l21.085-12.174v-46.272z" fill="#d4d4ff"/></g><path d="m248.498 353.702-42.917 23.08c7.535 19.763 22.611 35.415 42.917 46.272 20.305-10.857 35.363-26.511 42.899-46.272z" fill="#c8866a"/><g><path d="m273.857 78.966h-29.226c-19.431 0-37.783 8.93-49.774 24.22l-99.363 126.693 99.362 126.693c11.991 15.289 30.344 24.211 49.774 24.211h29.226c5.971-.998 11.825-2.335 17.54-4.001 51.745-15.093 92.105-56.738 105.409-109.145 3.066-12.078 4.695-24.729 4.695-37.758.001-75.863-55.21-138.831-127.643-150.913z" fill="#db9e82"/><path d="m146.214 229.879c0-75.862 55.214-138.829 127.643-150.913-8.25-1.376-16.719-2.092-25.36-2.092-84.499 0-153.002 68.502-153.002 153.005 0 13.026 1.628 25.671 4.691 37.744 13.305 52.439 53.689 94.079 105.396 109.159 13.615 3.971 28.018 6.099 42.916 6.099 8.641 0 17.11-.721 25.36-2.098-61.812-10.313-111.086-57.68-124.203-118.495-2.255-10.446-3.441-21.289-3.441-32.409z" fill="#c8866a"/></g><g fill="#ffdbe0"><ellipse cx="169.38" cy="309" rx="28.882" ry="23"/><ellipse cx="327.498" cy="309" rx="29" ry="23"/></g><path d="m296.368 308.193c-6.886 0-13.343-2.954-18.204-7.83-3.614-3.625-8.611-5.868-14.134-5.868-6.275 0-11.871 2.896-15.532 7.423-3.661-4.526-9.257-7.423-15.532-7.423-5.523 0-10.52 2.243-14.134 5.868-4.862 4.876-11.319 7.83-18.204 7.83-3.099 0-5.409 2.842-4.804 5.881 2.733 13.727 14.847 24.073 29.377 24.073 9.412 0 17.806-4.345 23.297-11.134 5.491 6.789 13.885 11.134 23.297 11.134 14.53 0 26.644-10.346 29.377-24.073.605-3.039-1.705-5.881-4.804-5.881z" fill="#ac6757"/><g><path d="m362.589 42.052c-9.653-8.3-19.989-15.372-30.801-21.229l-83.301 101.695v91.523c41.437 34.438 93.843 53.596 148.319 53.596 45.922-73.316 31.38-169.185-34.217-225.585z" fill="#ffce71"/><g><path d="m331.318 21.028c-25.88-14.02-54.509-21.029-83.139-21.028l-126.085 59.088v175.546l27.421 27.421c36.165-7.894 70.031-24.375 98.654-48.16 7.318-6.081 14.3-12.63 20.883-19.645 9.953-10.606 18.796-22.049 26.491-34.138 26.156-41.096 38.913-89.74 35.775-139.084z" fill="#ffb357"/><g><path d="m248.179 0c-28.632.002-57.264 7.014-83.145 21.038-10.783 5.843-21.093 12.893-30.722 21.17-65.483 56.292-80.007 151.985-34.175 225.171 16.741 0 33.287-1.813 49.378-5.325-35.735-99.727 6.031-210.658 98.664-262.054z" fill="#fc8a3d"/></g></g></g><g fill="#313d40"><path d="m186.049 272.5c-4.142 0-7.5 3.358-7.5 7.5v12c0 4.142 3.358 7.5 7.5 7.5s7.5-3.358 7.5-7.5v-12c0-4.142-3.358-7.5-7.5-7.5z"/><path d="m310.947 272.5c-4.142 0-7.5 3.358-7.5 7.5v12c0 4.142 3.358 7.5 7.5 7.5s7.5-3.358 7.5-7.5v-12c0-4.142-3.358-7.5-7.5-7.5z"/></g><circle cx="248.498" cy="467" fill="#d4d4ff" r="7.5"/></g></svg>