<svg id="Capa_1" enable-background="new 0 0 497 497" height="512" viewBox="0 0 497 497" width="512" xmlns="http://www.w3.org/2000/svg"><g><g><path d="m248.5 301.539v168.19c55.288 0 110.576-5.634 164.999-16.901l.001-.001c16.503-3.416 28.338-17.953 28.338-34.805v-116.483z" fill="#676fb2"/><path d="m55.162 301.539v116.484c0 16.852 11.835 31.389 28.338 34.805l.001.001c54.423 11.267 109.711 16.901 164.999 16.901v-168.19h-193.338z" fill="#4c5699"/></g><g><path d="m248.5 366.921v-.001c-.001 0 .001 0 0 0-18.332 0-35.577 4.841-50.533 13.337-11.617 6.599-21.852 15.412-30.144 25.824v64.626h80.677l20.526-20.526v-62.734z" fill="#ff8e9e"/><g><path d="m299.001 380.257-50.501-.004v90.454l19.124 26.293h84.279v-25.771c0-38.798-21.234-72.983-52.902-90.972z" fill="#fce3a0"/><path d="m280.835 416.165h-32.335v21.645l-80.677 32.897v26.293h80.677 19.124v-46.201c0-12.775 4.703-25.104 13.211-34.634z" fill="#ffce71"/></g><g><path d="m167.823 406.081c-9.501 11.991-16.563 26.269-20.092 41.712-1.147 5.014-1.924 10.168-2.322 15.427h40.776v-12.008c0-16.851-6.53-33.149-18.362-45.131z" fill="#ea5b70"/><path d="m145.097 471.229v25.771h41.087v-33.78h-40.776c-.2 2.644-.311 5.314-.311 8.009z" fill="#c8866a"/></g><path d="m248.5 337.743-50.533 42.514c5.634 26.696 24.791 48.511 50.533 57.553 12.648-4.443 23.698-11.97 32.335-21.645 2.555-2.862 4.899-5.911 7.01-9.124.64-.975 1.26-1.964 1.857-2.968 4.326-7.272 7.5-15.293 9.299-23.817z" fill="#c8866a"/></g><path d="m441.963 173.456h-386.926c-25.791 0-46.698 20.907-46.698 46.698s20.907 46.698 46.698 46.698h386.926c25.791 0 46.698-20.907 46.698-46.698s-20.907-46.698-46.698-46.698z" fill="#c8866a"/><g><path d="m280.718 2.692h-59.099l-166.582 190.778 166.582 190.778h59.099c6.199-1.039 12.298-2.377 18.283-3.991 82.354-22.21 142.962-97.413 142.962-186.787 0-95.868-69.736-175.436-161.245-190.778z" fill="#db9e82"/><path d="m119.212 193.739c0-96.038 69.862-175.749 161.506-191.046-10.479-1.757-21.24-2.686-32.218-2.686-106.596 0-193.463 86.404-193.463 193.463 0 89.567 60.763 164.588 142.93 186.787 16.119 4.355 33.063 6.676 50.533 6.676 10.978 0 21.739-.929 32.218-2.686-91.644-15.298-161.506-94.473-161.506-190.508z" fill="#c8866a"/></g><g><g><g><g><ellipse cx="160.332" cy="271.874" fill="#ffdbe0" rx="30" ry="23.793"/></g><g><ellipse cx="337.668" cy="271.874" fill="#ffdbe0" rx="30" ry="23.793"/></g></g></g></g><g><path d="m434.015 120.053c-17.259-38.209-46.034-70.385-82.128-91.783h-147.149v146.976c35.808-8.93 69.75-24.957 99.468-47.259l35.145 35.145c10.73 10.731 24.354 17.518 39.11 19.634v160.051h63.376v-186.455c.001-12.521-2.668-24.898-7.822-36.309z" fill="#676fb2"/><path d="m351.887 28.27c-20.973-12.434-44.412-21.238-69.514-25.447-11.177-1.873-22.573-2.823-33.873-2.823-11.299 0-22.696.95-33.872 2.824-68.302 11.451-124.354 56.817-151.643 117.229-5.154 11.41-7.823 23.788-7.823 36.308v186.456h63.376v-159.34h19.431c22.593 0 45.025-2.809 66.769-8.231 3.198-20.383 9.707-40.333 19.487-59.023 26.079-49.836 72.774-75.664 127.662-87.953z" fill="#4c5699"/></g><circle cx="248.5" cy="200.586" fill="#ea5b70" r="10.007"/><g fill="#313d40"><path d="m173.352 227.191c-4.142 0-7.5 3.358-7.5 7.5v14.44c0 4.142 3.358 7.5 7.5 7.5s7.5-3.358 7.5-7.5v-14.44c0-4.142-3.358-7.5-7.5-7.5z"/><path d="m323.647 227.191c-4.143 0-7.5 3.358-7.5 7.5v14.44c0 4.142 3.357 7.5 7.5 7.5s7.5-3.358 7.5-7.5v-14.44c0-4.142-3.357-7.5-7.5-7.5z"/><path d="m273.24 243.048c-3.124-2.722-7.861-2.396-10.582.726-7.499 8.604-20.825 8.596-28.317 0-2.721-3.123-7.46-3.448-10.582-.726-3.123 2.721-3.448 7.459-.726 10.582 13.477 15.464 37.469 15.448 50.933 0 2.722-3.123 2.397-7.86-.726-10.582z"/></g></g></svg>