<svg id="Capa_1" enable-background="new 0 0 504.5 504.5" height="512" viewBox="0 0 504.5 504.5" width="512" xmlns="http://www.w3.org/2000/svg"><g><g><path d="m252.249 364.187c-16.546 0-32.424 2.883-47.176 8.167-54.892 19.658-93.134 72.04-93.134 132.147h140.311v-140.314c-.001 0-.001 0-.001 0z" fill="#ffce71"/><g><path d="m252.25 364.187v21.88c-35.265 27.461-57.974 70.287-58.028 118.433h58.028 140.312c0-60.798-38.94-112.719-93.155-132.147-14.75-5.285-30.62-8.166-47.157-8.166z" fill="#fce3a0"/></g><g><path d="m244.75 411.627h15v92.873h-15z" fill="#ffb357"/></g><path d="m290.257 423.216h-76.024c-18.635 0-29.651-20.876-19.134-36.259l9.973-14.603 47.177-25.373 47.157 25.373 9.984 14.603c10.518 15.383-.498 36.259-19.133 36.259z" fill="#ffb357"/><path d="m252.25 346.98-47.177 25.373c8.283 21.724 24.856 38.927 47.177 50.862 22.32-11.935 38.874-29.14 47.157-50.862z" fill="#c8866a"/><g fill="#ffb357"><circle cx="287.25" cy="450.745" r="8.692"/><circle cx="287.25" cy="488.308" r="8.692"/></g></g><g fill="#c8866a"><circle cx="84.062" cy="230.869" r="41.815"/><circle cx="420.438" cy="230.869" r="41.815"/></g><g><path d="m280.126 44.979h-32.127c-21.359 0-41.533 9.816-54.714 26.623l-109.223 139.267 109.223 139.267c13.181 16.807 33.355 26.614 54.714 26.614h32.127c6.564-1.097 12.999-2.564 19.281-4.396 69.989-20.415 121.031-85.018 121.031-161.485 0-83.392-60.69-152.609-140.312-165.89z" fill="#db9e82"/><path d="m139.815 210.869c0-83.391 60.694-152.607 140.311-165.89-9.069-1.513-18.379-2.3-27.877-2.3-92.885 0-168.187 75.301-168.187 168.19 0 76.509 51.088 141.091 121.011 161.485 14.967 4.365 30.799 6.702 47.176 6.702 9.498 0 18.808-.793 27.877-2.306-79.618-13.283-140.311-82.493-140.311-165.881z" fill="#c8866a"/></g><g><g fill="#313d40"><path d="m179.801 229c-4.142 0-7.5 3.358-7.5 7.5v12c0 4.142 3.358 7.5 7.5 7.5s7.5-3.358 7.5-7.5v-12c0-4.142-3.358-7.5-7.5-7.5z"/><path d="m324.699 229c-4.142 0-7.5 3.358-7.5 7.5v12c0 4.142 3.358 7.5 7.5 7.5s7.5-3.358 7.5-7.5v-12c0-4.142-3.358-7.5-7.5-7.5z"/></g><path d="m307.254 286.572c-1.486-5.718-3.643-11.263-6.434-16.487-6.749-12.628-18.874-21.427-33.266-24.14-6.125-1.154-12.076 1.591-15.305 6.484-3.229-4.894-9.182-7.639-15.306-6.484-14.392 2.713-26.516 11.512-33.265 24.14-2.791 5.223-4.948 10.768-6.434 16.487-2.478 9.537 4.644 18.863 14.497 18.863 6.782 0 12.806-4.529 14.479-11.102.893-3.508 2.206-6.908 3.916-10.107 2.407-4.505 7.029-7.794 12.364-8.8 4.163-.785 7.589-3.226 9.747-6.507 2.157 3.281 5.583 5.722 9.747 6.507 5.336 1.006 9.958 4.296 12.365 8.799 1.709 3.2 3.023 6.601 3.915 10.108 1.673 6.573 7.697 11.102 14.479 11.102 9.857 0 16.979-9.326 14.501-18.863z" fill="#4c5699"/></g><path d="m273.434 2.47c-2.777-3.072-7.52-3.312-10.593-.534-4.798 4.338-8.728 9.459-11.695 15.072-1.616-2.148-3.432-4.161-5.453-5.989-8.933-8.077-20.93-12.017-32.913-10.804-4.121.416-7.125 4.095-6.708 8.216s4.099 7.125 8.216 6.708c7.768-.786 15.551 1.769 21.345 7.007s9.117 12.722 9.117 20.532c0 4.142 3.358 7.5 7.5 7.5s7.5-3.358 7.5-7.5c0-11.266 4.793-22.06 13.15-29.616 3.073-2.776 3.312-7.519.534-10.592z" fill="#676fb2"/><g><path d="m402.714 60.405c-40.011-40.011-102.25-47.343-150.464-17.725-6.323-3.884-12.887-7.132-19.61-9.755h-65.664l-45.273 45.273v93.463l35.816 23.895c42.346-18.471 76.619-52.393 94.731-94.807 27.776 65.045 93.562 110.118 168.187 110.119h.001.001c29.618-48.214 22.286-110.452-17.725-150.463z" fill="#676fb2"/><path d="m159.459 102.221c13.678-32.274 40.212-57.393 73.181-69.297-44.542-17.369-96.094-7.28-130.854 27.481-40.011 40.013-47.343 102.25-17.724 150.464 25.962 0 50.864-5.459 73.457-15.313-11.297-30.115-10.69-63.532 1.94-93.335z" fill="#4c5699"/></g><path d="m267.25 203.373c0 8.284-6.716 15-15 15s-15-6.716-15-15c0-4.766 4.964-25.561 9.181-42.365 1.518-6.049 10.119-6.049 11.637 0 4.218 16.804 9.182 37.599 9.182 42.365z" fill="#ea5b70"/></g></svg>