<svg id="Capa_1" enable-background="new 0 0 497 497" height="512" viewBox="0 0 497 497" width="512" xmlns="http://www.w3.org/2000/svg"><g><path d="m480.524 350.472-20.85-162.659c-7.755-60.501-40.574-112.99-87.564-146.981l-42.16-20.774h-80.549v476.942h102.178c78.358 0 138.908-68.806 128.945-146.528z" fill="#ff8e9e"/><g><path d="m59.523 215.518-13.651 141.906c-2.733 28.41 6.331 55.69 25.521 76.815 19.191 21.127 45.479 32.761 74.019 32.761h103.088v-251.482z" fill="#d34459"/><path d="m450.768 354.286-17.788-138.768h-184.48v251.482h103.079c28.729 0 56.092-12.37 75.071-33.937s27.77-50.281 24.118-78.777z" fill="#ea5b70"/></g><ellipse cx="434.13" cy="274.521" fill="#ffce71" rx="44.781" ry="44.781" transform="matrix(.987 -.16 .16 .987 -38.368 73.085)"/><g><g><path d="m296.964 394.646c-14.59-8.281-31.116-12.796-48.465-12.796-3.425 0-6.81.176-10.146.52l-4.842 4.842v109.789h67.592c0-3.653 0-73.231 0-95.998z" fill="#fed2a4"/><path d="m249.573 485.88c-12.818-42.346-11.149-72.519-11.149-103.508-13.838 1.416-26.834 5.702-38.408 12.274l-4.144 6.395v95.959h57.066z" fill="#ffbd86"/></g><g><path d="m233.51 423.75v52.834h67.592c0-13.935 0-35.66 0-52.834z" fill="#fed2a4"/><path d="m239.265 430.824-5.755-7.074h-37.638v52.834h48.782v-9.574c-2.92-13.04-4.552-24.941-5.389-36.186z" fill="#ffbd86"/></g><g><path d="m248.5 467.041c-1.241 0-2.599-.012-3.845-.031l-11.145 11.169v18.821h67.592v-35.455c-17.205 3.645-34.857 5.496-52.602 5.496z" fill="#ff8e9e"/><path d="m195.872 497h57.066l-3.365-11.12c-1.988-6.567-3.568-12.839-4.918-18.87-16.248-.259-32.922-2.136-48.782-5.479-.001 17.324-.001 32.343-.001 35.469z" fill="#ea5b70"/></g><g><path d="m296.964 394.646c-14.59-8.281-31.116-12.796-48.465-12.796-3.401 0-6.762.174-10.075.513v.01l-4.914 4.839v36.539l5.755 7.074c3.069.129 6.145.217 9.234.217 17.971 0 35.606-2.185 52.602-6.428 0-9.582 0-18.013 0-23.61z" fill="#ffce71"/><path d="m238.424 382.372v-.01c-.024.002-.048.004-.072.006l-.013.013c-13.806 1.425-26.773 5.705-38.323 12.264l-4.144 6.395v23.563c14.083 3.519 28.607 5.6 43.393 6.22-1.27-17.082-.841-32.662-.841-48.451z" fill="#ffb357"/></g><g><path d="m171.174 419.337c-13.65 17.14-21.832 38.892-21.832 62.539v15.124h63.493c-8.483-28.024-12.795-57.145-12.795-86.425l-.024-15.929c-11.121 6.313-20.896 14.714-28.842 24.691z" fill="#ff8e9e"/><path d="m325.826 419.337c13.65 17.14 21.832 38.892 21.832 62.539v15.124h-63.493c8.483-28.024 12.795-57.145 12.795-86.425l.005-15.929c11.12 6.313 20.915 14.714 28.861 24.691z" fill="#ffb5c0"/></g></g><path d="m434.13 170.74h-31.986v89.562h31.986c24.732 0 44.781-20.049 44.781-44.781s-20.049-44.781-44.781-44.781z" fill="#ffbd86"/><g><g><path d="m248.5 89.743-185.521 125.777 159.743 182.946h56.673c5.952-.998 11.823-2.27 17.568-3.82 78.963-21.305 137.057-93.428 137.057-179.125 0-.001 0-.002 0-.003z" fill="#fed2a4"/><path d="m124.736 206.733-19.715-19.715-42.042 28.502c0 85.887 58.248 157.836 137.037 179.126 15.46 4.178 31.728 6.395 48.483 6.395 10.528 0 20.847-.89 30.896-2.575-91.028-15.195-154.659-95.297-154.659-191.733z" fill="#ffbd86"/></g><g><path d="m319.11 190.369c3.173-1.335 3.503-1.509 18.367-8.259l-12.406-27.315c-23.04 10.465-34.234 16.138-51.953 18.491h-.001l-14.629 5.184v25.524h5.013c9.098-.752 18.153-2.193 27.087-4.316 3.15 10.086 11.877 13.193 19.128 10.931 7.908-2.47 12.316-10.882 9.847-18.79z" fill="#ffce71"/><path d="m273.116 173.285c-6.868.912-14.717 1.325-24.616 1.325-35.972-.155-59.579-12.098-76.568-19.817l-12.409 27.313c14.846 6.745 15.186 6.924 18.368 8.262l-.453 1.45c-2.469 7.908 1.939 16.32 9.847 18.79 6.9 2.152 15.872-.505 19.127-10.928 8.934 2.123 17.988 3.563 27.088 4.315v3.008c0 8.284 6.716 15 15 15s15-6.716 15-15v-3.01-14.798c0-6.678 3.703-12.805 9.616-15.91z" fill="#ffb357"/></g></g><g><path d="m279.396 32.575h-30.896v82.757c39.117 60.016 108.126 100.129 185.52 100.185-.001-91.93-66.873-168.23-154.624-182.942z" fill="#676fb2"/><path d="m192.146 32.575-67.405 79.787v94.37c51.621-14.756 95.494-47.363 123.759-91.4 15.701-24.462 25.686-52.938 30.896-82.757z" fill="#4c5699"/></g><path d="m245.916 0c-111.725 0-203.995 85.206-214.52 194.614l-15.386 159.938c-7.346 76.363 52.687 142.448 129.402 142.448h67.423c-48.412-8.081-85.693-49.068-88.097-99.206-.001 0-.002 0-.003 0v-191.061c.002 0 .003-.001.005-.001 4.22-88.016 69.668-159.97 154.655-174.156 29.9-4.919 62.121-2.626 92.715 8.256-35.528-25.701-79.154-40.832-126.194-40.832z" fill="#ea5b70"/><g><g><g><g><ellipse cx="153.943" cy="272.339" fill="#ff8e9e" rx="29.355" ry="23.377"/></g><g><ellipse cx="343.057" cy="272.339" fill="#ff8e9e" rx="29.355" ry="23.377"/></g></g></g></g><g fill="#313d40"><path d="m181.051 241.267c-4.142 0-7.5 3.358-7.5 7.5v12c0 4.142 3.358 7.5 7.5 7.5s7.5-3.358 7.5-7.5v-12c0-4.142-3.358-7.5-7.5-7.5z"/><path d="m315.949 241.267c-4.142 0-7.5 3.358-7.5 7.5v12c0 4.142 3.358 7.5 7.5 7.5s7.5-3.358 7.5-7.5v-12c0-4.142-3.358-7.5-7.5-7.5z"/><path d="m269.892 254.755c-3.123-2.721-7.861-2.396-10.582.727-5.725 6.571-15.9 6.564-21.62 0-2.722-3.123-7.459-3.448-10.582-.727-3.123 2.722-3.448 7.459-.727 10.582 11.705 13.43 32.544 13.416 44.237 0 2.722-3.123 2.397-7.86-.726-10.582z"/></g></g></svg>