<svg id="Capa_1" enable-background="new 0 0 497 497" height="512" viewBox="0 0 497 497" width="512" xmlns="http://www.w3.org/2000/svg"><g><g><path d="m289.201 382.971c-2.534-.907-5.108-1.729-7.716-2.468-10.49-2.976-21.552-4.577-32.983-4.577l-55.072 40.537v80.537h176.147c0-52.026-33.181-97.133-80.376-114.029z" fill="#db9e82"/><path d="m248.502 375.925c-29.359 0-56.315 10.514-77.302 27.972v43.762l32.775-.005c14.484-32.29 42.736-57.28 77.51-67.151-10.49-2.977-21.552-4.578-32.983-4.578z" fill="#c8866a"/></g><g><path d="m203.975 447.654-36.415 23.476 25.87 25.87h131.232c-45.486 0-88.771-18.4-120.687-49.346z" fill="#d4d4ff"/><path d="m171.2 403.897c-26.727 22.231-43.77 55.72-43.77 93.103h66c0-17.51 3.764-34.23 10.545-49.346-13.027-12.631-24.16-27.33-32.775-43.757z" fill="#9ea2e3"/></g><g><g fill="#c8866a"><circle cx="103.376" cy="243.629" r="36.081"/><circle cx="393.631" cy="243.629" r="36.081"/></g><g><path d="m272.557 100.484h-27.722c-18.43 0-35.838 8.47-47.212 22.973l-94.247 120.172 94.247 120.172c11.374 14.502 28.782 22.965 47.212 22.965h27.722c5.664-.947 11.217-2.212 16.638-3.794 60.393-17.616 104.437-73.361 104.437-139.343 0-12.358-1.545-24.356-4.451-35.81-14.02-55.239-59.719-97.843-116.624-107.335z" fill="#db9e82"/><path d="m151.484 243.629c0-71.957 52.372-131.683 121.073-143.145-7.825-1.306-15.859-1.984-24.055-1.984-67.792 0-124.729 46.484-140.675 109.32-2.907 11.454-4.451 23.451-4.451 35.809 0 66.019 44.083 121.746 104.419 139.343 12.915 3.767 26.576 5.783 40.708 5.783 8.196 0 16.229-.684 24.055-1.99-68.702-11.461-121.074-71.181-121.074-143.136z" fill="#c8866a"/></g></g><g fill="#313d40"><path d="m185.978 245.271c-4.142 0-7.5 3.358-7.5 7.5v12c0 4.142 3.358 7.5 7.5 7.5s7.5-3.358 7.5-7.5v-12c0-4.143-3.358-7.5-7.5-7.5z"/><path d="m310.875 245.271c-4.142 0-7.5 3.358-7.5 7.5v12c0 4.142 3.358 7.5 7.5 7.5s7.5-3.358 7.5-7.5v-12c0-4.143-3.358-7.5-7.5-7.5z"/></g><g><path d="m107.846 76.61-.019 131.209c86.647-51.925 194.705-51.925 281.353 0l.159-131.209z" fill="#9ea2e3"/><path d="m433.974 124.034c-3.641-23.077-27.79-51.409-63.348-66.072l-82.036-.029-40 45.519c57.77 26.75 100.534 53.876 140.59 104.368 17.211-8.71 32.39-21.418 40.267-39.696 5.407-12.546 7.449-27.275 4.527-44.09z" fill="#d4d4ff"/><g><path d="m342.151 16.962c-20.582-7.549-44.414-12.912-66.461-15.433-8.745-.99-17.785-1.529-27.12-1.528l-124.944 46.611 36.269 109.269c28.262-21.861 60.416-40.629 96.785-55.919 36.831-15.895 78.072-28.149 113.946-42 0-18.273-11.321-34.708-28.475-41z" fill="#efedff"/><path d="m248.569.001c-37.636-.098-74.559 9.123-103.008 24.43-55.87 29.226-81.346 74.631-83.639 109.827-2.519 33.491 15.838 58.099 45.905 73.561 14.509-18.861 30.309-35.107 52.068-51.938-6.088-61.267 27.194-121.64 88.674-155.88z" fill="#d4d4ff"/></g></g><g><path d="m278.503 302.167h-60c-16.569 0-30 12.386-30 40 0 31.094 16.953 65.006 35.617 59.112 5.444 12.643 14.333 20.888 24.383 20.888s18.939-8.245 24.383-20.888c18.663 5.894 35.617-28.016 35.617-59.112 0-27.615-13.431-40-30-40z" fill="#d4d4ff"/><path d="m312.311 322.706c-1.723-6.645-4.228-13.088-7.471-19.157-7.828-14.646-21.891-24.852-38.583-27.999-7.104-1.339-14.007 1.845-17.751 7.521-3.745-5.676-10.65-8.86-17.752-7.521-16.692 3.146-30.754 13.352-38.582 27.999-3.243 6.068-5.747 12.511-7.471 19.156-2.866 11.048 5.409 21.844 16.822 21.844 7.864 0 14.856-5.252 16.795-12.874 1.036-4.069 2.559-8.015 4.542-11.726 2.792-5.225 8.153-9.04 14.341-10.207 4.829-.911 8.803-3.771 11.305-7.577 2.502 3.806 6.476 6.667 11.305 7.577 6.189 1.167 11.55 4.983 14.342 10.205 1.983 3.712 3.506 7.658 4.542 11.727 1.94 7.622 8.931 12.874 16.795 12.874 11.412.002 19.686-10.794 16.821-21.842z" fill="#efedff"/></g><path d="m263.503 218.873c0 8.284-6.716 15-15 15s-15-6.716-15-15c0-4.766 4.964-25.561 9.181-42.365 1.518-6.049 10.119-6.049 11.637 0 4.218 16.804 9.182 37.599 9.182 42.365z" fill="#ea5b70"/></g></svg>