<svg id="Capa_1" enable-background="new 0 0 497 497" height="512" viewBox="0 0 497 497" width="512" xmlns="http://www.w3.org/2000/svg"><g><path d="m276.913 21.344-16.725-16.456c-3.213-3.259-7.292-4.888-11.688-4.888-4.395 0-9.107 1.629-12.319 4.888l-16.094 16.456c-7.678 7.648-15.316 18.835-15.316 30.701 0 28.777 21.306 45.921 43.729 45.921 18.569 0 34.423-11.579 40.766-27.907 2.837-7.304 2.964-12.912 2.964-18.014-.001-11.866-7.64-23.053-15.317-30.701z" fill="#4c5699"/><g><path d="m358.137 375.022h-14.611c-9.206 0-17.773-4.654-22.914-12.448-6.723-10.193-15.357-18.741-24.841-24.865h-80.721v53.632h87.156c11.057 10.427 25.811 16.479 41.32 16.479h14.611c9.057 0 16.399-7.342 16.399-16.398s-7.343-16.4-16.399-16.4z" fill="#fed2a4"/><path d="m201.252 337.708c-9.733 6.371-18.236 14.816-24.864 24.864-5.142 7.796-13.708 12.449-22.914 12.449h-14.611c-9.057 0-16.399 7.342-16.399 16.398s7.342 16.399 16.399 16.399h14.611c20.262 0 39.062-10.164 50.292-27.188z" fill="#ffbd86"/></g><g><path d="m302.206 391.34-27.06-8.531c-17.302-5.456-32.386-16.34-43.015-31.042h-17.081v84.363h87.371v-32.799c0-4.013-.079-8.144-.215-11.991z" fill="#ff8f71"/><path d="m280.148 414.455c-26.515-.001-48.018-21.496-48.018-48.012v-14.676c-4.637-5.563-8.497-13.803-10.831-24.654-7.212 2.586-13.957 6.2-20.047 10.595-4.243 21.329-6.683 41.948-6.683 65.624v.001 14.708c-18.375 6.386-30.898 20.675-30.898 37.683l169.657.002c0-22.88-22.688-41.271-53.18-41.271z" fill="#ff6f4d"/></g><g><path d="m368.756 212.917h-240.512c-18.113 0-32.797 14.684-32.797 32.797 0 18.114 14.684 32.797 32.797 32.797h240.512c18.113 0 32.797-14.683 32.797-32.797 0-18.113-14.684-32.797-32.797-32.797z" fill="#ffbd86"/><path d="m269.79 91.523h-24.537c-16.313 0-31.721 7.497-41.788 20.334l-83.42 106.366 83.42 106.366c10.067 12.836 25.475 20.327 41.788 20.327h24.537c9.008-1.506 17.714-3.935 25.98-7.207 47.594-18.841 81.184-65.261 81.184-119.486.001-63.692-46.352-116.556-107.164-126.7z" fill="#fed2a4"/><path d="m162.627 218.223c0-63.69 46.355-116.555 107.163-126.7-6.926-1.156-14.037-1.756-21.291-1.756-70.942 0-128.454 57.511-128.454 128.456 0 70.942 57.512 128.454 128.454 128.454 7.254 0 14.365-.606 21.291-1.761-60.808-10.145-107.163-63.005-107.163-126.693z" fill="#ffbd86"/></g><g><path d="m216.419 496.998c-29.578 0-52.747-18.131-52.747-41.273 0-9.057 7.342-16.397 16.399-16.397 9.051 0 16.391 7.349 16.4 16.398.223 2.058 6.615 8.475 19.949 8.475 17.458 0 25.345-9.6 32.973-18.885 2.894-3.523 9.406-11.465 9.406-11.465 5.713-6.967 16.046-8.059 23.091-2.273l12.688 10.425c4.235 3.481 6.278 8.64 5.955 13.722-.21 3.314-1.427 6.597-3.696 9.358-5.749 6.998-16.083 8.009-23.081 2.26l-.01-.009c-9.085 11.01-25.558 29.664-57.327 29.664z" fill="#ffbd86"/><path d="m280.581 497c-31.772 0-48.244-18.657-57.327-29.663l-.01.009c-6.998 5.75-17.331 4.737-23.081-2.26-2.27-2.762-3.483-6.046-3.693-9.36-.323-5.083 1.717-10.24 5.952-13.721l12.688-10.425c7.031-5.775 17.37-4.705 23.091 2.273.001 0 6.512 7.942 9.408 11.467 7.626 9.283 15.514 18.883 32.972 18.883 13.353 0 19.745-6.428 19.951-8.477 0-9.058 7.342-16.409 16.399-16.409s16.398 7.353 16.398 16.41c0 23.142-23.17 41.273-52.748 41.273z" fill="#fed2a4"/></g><g><path d="m397.727 171.759c0-10.586-7.001-19.533-16.624-22.476 1.529-3.119 2.412-6.613 2.412-10.321 0-12.068-9.098-21.999-20.807-23.339.007-.239.036-.472.036-.713 0-12.981-10.523-23.505-23.505-23.505-1.546 0-3.055.159-4.518.444-2.504-10.288-11.754-17.936-22.813-17.936-2.908 0-5.68.553-8.251 1.518-3.752-7.994-11.851-13.544-21.267-13.544-5.891 0-11.262 2.183-15.387 5.764h-44.414l-43.729 43.729v44.288c45.503-11.365 93.919-11.36 139.488.049 11.467 2.871 21.052 10.873 25.696 21.743 3.436 8.043 5.886 16.609 7.198 25.545 1.054 7.178 6.839 12.913 14.028 13.886 10.751 1.432 20.005-7.939 18.431-18.671-.228-1.558-.488-3.105-.77-4.645 8.666-3.46 14.796-11.915 14.796-21.816z" fill="#676fb2"/><path d="m245.697 98.065c12.736-4.797 21.307-16.803 21.307-30.412-4.302-5.497-10.982-9.043-18.504-9.043-7.521 0-14.201 3.546-18.503 9.043-4.125-3.581-9.496-5.764-15.387-5.764-9.415 0-17.515 5.549-21.266 13.544-2.571-.965-5.343-1.518-8.251-1.518-11.059 0-20.309 7.648-22.813 17.936-1.463-.285-2.971-.444-4.518-.444-12.981 0-23.505 10.523-23.505 23.505 0 .241.029.474.036.713-11.709 1.34-20.807 11.271-20.807 23.339 0 3.708.882 7.202 2.412 10.321-9.623 2.943-16.624 11.889-16.624 22.476 0 9.901 6.13 18.355 14.795 21.818-.281 1.541-.542 3.09-.77 4.648-1.573 10.731 7.681 20.1 18.431 18.669 7.189-.974 12.974-6.709 14.027-13.886 1.312-8.936 3.762-17.502 7.199-25.547 4.562-10.679 14.043-18.88 25.904-21.791 14.699-26.293 38.33-46.872 66.837-57.607z" fill="#4c5699"/></g><circle cx="248.5" cy="198.385" fill="#ffbd86" r="7.5"/><g fill="#ff8e9e"><ellipse cx="175.321" cy="263.742" rx="27.03" ry="21.526"/><ellipse cx="321.834" cy="263.742" rx="27.03" ry="21.526"/></g><g fill="#313d40"><path d="m209.948 229.984c-3.124-2.721-7.861-2.396-10.582.728-2.094 2.402-5.116 3.78-8.292 3.78s-6.198-1.378-8.292-3.78c-2.721-3.123-7.459-3.448-10.582-.728-3.123 2.721-3.448 7.459-.727 10.581 4.943 5.673 12.087 8.927 19.601 8.927s14.658-3.254 19.601-8.927c2.721-3.122 2.396-7.86-.727-10.581z"/><path d="m324.954 229.984c-3.124-2.721-7.86-2.396-10.582.728-2.094 2.402-5.116 3.78-8.292 3.78s-6.199-1.378-8.292-3.78c-2.722-3.123-7.459-3.448-10.582-.728-3.123 2.721-3.448 7.459-.727 10.581 4.943 5.673 12.087 8.927 19.601 8.927 7.513 0 14.658-3.254 19.601-8.927 2.721-3.122 2.396-7.86-.727-10.581z"/><path d="m270.722 238.148c-3.124-2.722-7.861-2.396-10.582.727-2.939 3.372-7.181 5.307-11.64 5.307s-8.701-1.935-11.64-5.307c-2.721-3.122-7.459-3.447-10.582-.727-3.123 2.722-3.448 7.459-.727 10.582 5.789 6.642 14.153 10.451 22.948 10.451s17.16-3.81 22.948-10.451c2.722-3.123 2.397-7.86-.725-10.582z"/></g></g></svg>